<svg viewBox="0 0 200 200" xmlns="http://www.w3.org/2000/svg">
  <path fill="#0D47A1" d="M44.7,-76.4C58.9,-69.2,71.8,-59.1,81.6,-46.6C91.4,-34.1,98.2,-19.2,95.8,-5.2C93.4,8.9,81.9,22.1,70.8,33.9C59.7,45.7,49,56.1,36.9,64.1C24.8,72.1,11.3,77.7,-3.1,83.1C-17.5,88.5,-32.8,93.6,-45.4,86.6C-58,79.6,-67.8,60.5,-75.4,43C-83,25.5,-88.3,9.6,-86.6,-5.5C-84.9,-20.6,-76.2,-34.9,-65.3,-46.3C-54.4,-57.7,-41.3,-66.2,-27.9,-74C-14.5,-81.8,-0.8,-88.9,14.6,-88.7C30,-88.5,44,-80.9,44.7,-76.4Z" transform="translate(100 100)" opacity="0.1" />
</svg>
